<svg version="1" xmlns="http://www.w3.org/2000/svg" width="821.333" height="821.333" viewBox="0 0 616.000000 616.000000"><path d="M290.8.4c-.1.2-3.4.6-7.1 1-18.2 1.7-37.6 6.2-56.5 13.3-11.3 4.1-32.3 14.2-40.2 19.1-9.4 6-16.5 10.6-17 11.2-.3.3-2.3 1.8-4.6 3.3-2.2 1.5-4.9 3.5-6 4.5-1.1.9-4.9 4.1-8.4 7.1-3.6 3-11.3 10.3-17.2 16.3-26.6 26.9-47.8 58.7-62.7 93.8-1.8 4.1-3.6 8.4-4.1 9.5-3.4 7.3-13.7 41.3-15.6 51-.2 1.1-1 5.4-1.9 9.5-1.6 8.1-2.1 11-3 18-.3 2.5-.8 5.6-1 7-.3 1.4-.7 6.1-1.1 10.5-.6 8-1.3 9.5-4.7 9.5-1 0-4.2 1.1-7 2.5C16.5 295.1 7 312 8.4 330.6c.9 11.8 5.5 21.3 14.1 29.3 6.5 6 10.6 7.8 23.6 10.5 2.2.5 2.8 1.3 3.3 4.8 1.2 7.2 4.7 21.8 7.8 32.3 18.4 62 51.8 113.7 98.4 152.5 17.3 14.4 41.8 29.2 62.4 37.7 12.9 5.4 32.6 11.6 40.5 12.9 2.2.3 4.2.7 4.5.9.3.2 2.4.6 4.6.9 2.2.4 4.9.8 6.1 1 10.5 2.1 46.7 2.8 58.8 1.3 3.3-.4 7.8-1 10-1.3 21-2.7 49.3-11.9 72.1-23.5 14.1-7.1 36.2-21.4 44-28.4.6-.6 3.6-3 6.5-5.5 9.6-7.8 29.6-28.7 37.7-39.3 16.5-21.4 26.1-37 37.3-60.2 3.8-7.9 6.9-14.7 6.9-15 0-.4.6-2.1 1.4-3.8 1.3-2.9 5.9-15.5 6.2-16.7 0-.3.3-1.2.7-2 1.5-3.7 8.1-27.6 9.3-33.5 2-10.1 3.1-14.6 3.7-14.6 3.6-.3 14-3.5 18-5.6 9.4-5.2 18.1-17.1 20.6-28.5 2.1-9.3.3-22.3-4.5-31.8-4.1-8.1-19.6-20-26.1-20-3.5 0-4.1-1.6-5.2-13-1.1-10.5-1.6-14.8-2.6-20.5-1.6-9.9-2.6-15.6-3-16.7-.2-.7-.6-2.5-.9-3.9-1-6.2-6.9-26.6-11.2-39-21.9-62.8-62.2-116.6-112.9-150.6-14.2-9.5-24.2-14.9-42.5-23.1-16.4-7.3-37.1-12.8-63-16.7-4.5-.7-43.5-1.6-44.2-1.1z"/></svg>